<svg width="1209" height="623" viewBox="0 0 1209 623" fill="none" xmlns="http://www.w3.org/2000/svg">
<path d="M3 437.009V569.957H143" stroke="white" stroke-width="5"/>
<path d="M1206 437.009V569.957H1066" stroke="white" stroke-width="5"/>
<path d="M3 135.948V2.99997H143" stroke="white" stroke-width="5"/>
<path d="M1206 135.948V2.99997H1066" stroke="white" stroke-width="5"/>
<path d="M445 321.154V356.29H482" stroke="white" stroke-width="5"/>
<path d="M766 321.154V356.29H729" stroke="white" stroke-width="5"/>
<path d="M445 263.227V228.09H482" stroke="white" stroke-width="5"/>
<path d="M766 263.227V228.09H729" stroke="white" stroke-width="5"/>
<path d="M513.591 604.455C512.466 604.455 511.463 604.262 510.583 603.875C509.708 603.489 509.012 602.952 508.495 602.265C507.983 601.571 507.705 600.767 507.659 599.853H509.807C509.853 600.415 510.046 600.901 510.387 601.31C510.728 601.713 511.174 602.026 511.725 602.248C512.276 602.469 512.887 602.58 513.557 602.58C514.307 602.58 514.972 602.449 515.551 602.188C516.131 601.927 516.586 601.563 516.915 601.097C517.245 600.631 517.409 600.091 517.409 599.478C517.409 598.836 517.25 598.27 516.932 597.782C516.614 597.287 516.148 596.901 515.534 596.623C514.921 596.344 514.171 596.205 513.284 596.205H511.887V594.33H513.284C513.978 594.33 514.586 594.205 515.108 593.955C515.637 593.705 516.049 593.353 516.344 592.898C516.645 592.444 516.796 591.909 516.796 591.296C516.796 590.705 516.665 590.191 516.404 589.753C516.142 589.316 515.773 588.975 515.296 588.731C514.824 588.486 514.267 588.364 513.625 588.364C513.023 588.364 512.455 588.475 511.921 588.696C511.392 588.912 510.961 589.228 510.625 589.642C510.29 590.052 510.108 590.546 510.08 591.125H508.034C508.069 590.211 508.344 589.409 508.861 588.722C509.378 588.029 510.054 587.489 510.89 587.103C511.73 586.716 512.654 586.523 513.659 586.523C514.739 586.523 515.665 586.742 516.438 587.179C517.211 587.611 517.804 588.182 518.219 588.892C518.634 589.603 518.841 590.37 518.841 591.194C518.841 592.177 518.583 593.015 518.066 593.708C517.554 594.401 516.858 594.881 515.978 595.148V595.284C517.08 595.466 517.941 595.935 518.56 596.691C519.179 597.441 519.489 598.37 519.489 599.478C519.489 600.427 519.23 601.279 518.713 602.034C518.202 602.784 517.503 603.375 516.617 603.807C515.73 604.239 514.722 604.455 513.591 604.455ZM523.936 604.353C523.515 604.353 523.154 604.202 522.853 603.901C522.552 603.6 522.402 603.239 522.402 602.819C522.402 602.398 522.552 602.037 522.853 601.736C523.154 601.435 523.515 601.284 523.936 601.284C524.356 601.284 524.717 601.435 525.018 601.736C525.319 602.037 525.47 602.398 525.47 602.819C525.47 603.097 525.399 603.353 525.257 603.586C525.12 603.819 524.936 604.006 524.703 604.148C524.475 604.284 524.22 604.353 523.936 604.353ZM530.545 604.353C530.125 604.353 529.764 604.202 529.463 603.901C529.162 603.6 529.011 603.239 529.011 602.819C529.011 602.398 529.162 602.037 529.463 601.736C529.764 601.435 530.125 601.284 530.545 601.284C530.966 601.284 531.326 601.435 531.627 601.736C531.929 602.037 532.079 602.398 532.079 602.819C532.079 603.097 532.008 603.353 531.866 603.586C531.73 603.819 531.545 604.006 531.312 604.148C531.085 604.284 530.829 604.353 530.545 604.353ZM537.154 604.353C536.734 604.353 536.373 604.202 536.072 603.901C535.771 603.6 535.62 603.239 535.62 602.819C535.62 602.398 535.771 602.037 536.072 601.736C536.373 601.435 536.734 601.284 537.154 601.284C537.575 601.284 537.936 601.435 538.237 601.736C538.538 602.037 538.689 602.398 538.689 602.819C538.689 603.097 538.618 603.353 538.475 603.586C538.339 603.819 538.154 604.006 537.922 604.148C537.694 604.284 537.439 604.353 537.154 604.353ZM542.264 604.216V602.682L548.025 596.375C548.701 595.637 549.258 594.995 549.696 594.449C550.133 593.898 550.457 593.381 550.667 592.898C550.883 592.409 550.991 591.898 550.991 591.364C550.991 590.75 550.843 590.219 550.548 589.77C550.258 589.321 549.86 588.975 549.355 588.731C548.849 588.486 548.281 588.364 547.65 588.364C546.98 588.364 546.395 588.503 545.895 588.782C545.4 589.054 545.017 589.438 544.744 589.932C544.477 590.427 544.343 591.006 544.343 591.671H542.332C542.332 590.648 542.568 589.75 543.039 588.978C543.511 588.205 544.153 587.603 544.966 587.171C545.784 586.739 546.701 586.523 547.718 586.523C548.741 586.523 549.647 586.739 550.437 587.171C551.227 587.603 551.846 588.185 552.295 588.918C552.744 589.651 552.968 590.466 552.968 591.364C552.968 592.006 552.852 592.634 552.619 593.248C552.392 593.856 551.994 594.534 551.426 595.284C550.863 596.029 550.082 596.938 549.082 598.012L545.162 602.205V602.341H553.275V604.216H542.264ZM558.295 604.353C557.875 604.353 557.514 604.202 557.213 603.901C556.912 603.6 556.761 603.239 556.761 602.819C556.761 602.398 556.912 602.037 557.213 601.736C557.514 601.435 557.875 601.284 558.295 601.284C558.716 601.284 559.076 601.435 559.377 601.736C559.679 602.037 559.829 602.398 559.829 602.819C559.829 603.097 559.758 603.353 559.616 603.586C559.48 603.819 559.295 604.006 559.062 604.148C558.835 604.284 558.579 604.353 558.295 604.353ZM564.904 604.353C564.484 604.353 564.123 604.202 563.822 603.901C563.521 603.6 563.37 603.239 563.37 602.819C563.37 602.398 563.521 602.037 563.822 601.736C564.123 601.435 564.484 601.284 564.904 601.284C565.325 601.284 565.686 601.435 565.987 601.736C566.288 602.037 566.439 602.398 566.439 602.819C566.439 603.097 566.368 603.353 566.225 603.586C566.089 603.819 565.904 604.006 565.672 604.148C565.444 604.284 565.189 604.353 564.904 604.353ZM571.514 604.353C571.093 604.353 570.733 604.202 570.431 603.901C570.13 603.6 569.98 603.239 569.98 602.819C569.98 602.398 570.13 602.037 570.431 601.736C570.733 601.435 571.093 601.284 571.514 601.284C571.934 601.284 572.295 601.435 572.596 601.736C572.897 602.037 573.048 602.398 573.048 602.819C573.048 603.097 572.977 603.353 572.835 603.586C572.699 603.819 572.514 604.006 572.281 604.148C572.054 604.284 571.798 604.353 571.514 604.353ZM580.674 586.762V604.216H578.56V588.978H578.458L574.196 591.807V589.659L578.56 586.762H580.674ZM586.162 604.353C585.742 604.353 585.381 604.202 585.08 603.901C584.779 603.6 584.628 603.239 584.628 602.819C584.628 602.398 584.779 602.037 585.08 601.736C585.381 601.435 585.742 601.284 586.162 601.284C586.583 601.284 586.944 601.435 587.245 601.736C587.546 602.037 587.696 602.398 587.696 602.819C587.696 603.097 587.625 603.353 587.483 603.586C587.347 603.819 587.162 604.006 586.929 604.148C586.702 604.284 586.446 604.353 586.162 604.353ZM592.772 604.353C592.351 604.353 591.99 604.202 591.689 603.901C591.388 603.6 591.238 603.239 591.238 602.819C591.238 602.398 591.388 602.037 591.689 601.736C591.99 601.435 592.351 601.284 592.772 601.284C593.192 601.284 593.553 601.435 593.854 601.736C594.155 602.037 594.306 602.398 594.306 602.819C594.306 603.097 594.235 603.353 594.093 603.586C593.956 603.819 593.772 604.006 593.539 604.148C593.311 604.284 593.056 604.353 592.772 604.353ZM599.381 604.353C598.961 604.353 598.6 604.202 598.299 603.901C597.998 603.6 597.847 603.239 597.847 602.819C597.847 602.398 597.998 602.037 598.299 601.736C598.6 601.435 598.961 601.284 599.381 601.284C599.801 601.284 600.162 601.435 600.463 601.736C600.765 602.037 600.915 602.398 600.915 602.819C600.915 603.097 600.844 603.353 600.702 603.586C600.566 603.819 600.381 604.006 600.148 604.148C599.921 604.284 599.665 604.353 599.381 604.353ZM612.74 604.353C612.32 604.353 611.959 604.202 611.658 603.901C611.357 603.6 611.206 603.239 611.206 602.819C611.206 602.398 611.357 602.037 611.658 601.736C611.959 601.435 612.32 601.284 612.74 601.284C613.161 601.284 613.522 601.435 613.823 601.736C614.124 602.037 614.275 602.398 614.275 602.819C614.275 603.097 614.203 603.353 614.061 603.586C613.925 603.819 613.74 604.006 613.507 604.148C613.28 604.284 613.025 604.353 612.74 604.353ZM619.35 604.353C618.929 604.353 618.569 604.202 618.267 603.901C617.966 603.6 617.816 603.239 617.816 602.819C617.816 602.398 617.966 602.037 618.267 601.736C618.569 601.435 618.929 601.284 619.35 601.284C619.77 601.284 620.131 601.435 620.432 601.736C620.733 602.037 620.884 602.398 620.884 602.819C620.884 603.097 620.813 603.353 620.671 603.586C620.534 603.819 620.35 604.006 620.117 604.148C619.89 604.284 619.634 604.353 619.35 604.353ZM625.959 604.353C625.539 604.353 625.178 604.202 624.877 603.901C624.576 603.6 624.425 603.239 624.425 602.819C624.425 602.398 624.576 602.037 624.877 601.736C625.178 601.435 625.539 601.284 625.959 601.284C626.38 601.284 626.74 601.435 627.042 601.736C627.343 602.037 627.493 602.398 627.493 602.819C627.493 603.097 627.422 603.353 627.28 603.586C627.144 603.819 626.959 604.006 626.726 604.148C626.499 604.284 626.243 604.353 625.959 604.353ZM635.119 586.762V604.216H633.005V588.978H632.903L628.642 591.807V589.659L633.005 586.762H635.119ZM640.608 604.353C640.187 604.353 639.826 604.202 639.525 603.901C639.224 603.6 639.074 603.239 639.074 602.819C639.074 602.398 639.224 602.037 639.525 601.736C639.826 601.435 640.187 601.284 640.608 601.284C641.028 601.284 641.389 601.435 641.69 601.736C641.991 602.037 642.142 602.398 642.142 602.819C642.142 603.097 642.071 603.353 641.929 603.586C641.792 603.819 641.608 604.006 641.375 604.148C641.147 604.284 640.892 604.353 640.608 604.353ZM647.217 604.353C646.797 604.353 646.436 604.202 646.135 603.901C645.833 603.6 645.683 603.239 645.683 602.819C645.683 602.398 645.833 602.037 646.135 601.736C646.436 601.435 646.797 601.284 647.217 601.284C647.637 601.284 647.998 601.435 648.299 601.736C648.6 602.037 648.751 602.398 648.751 602.819C648.751 603.097 648.68 603.353 648.538 603.586C648.402 603.819 648.217 604.006 647.984 604.148C647.757 604.284 647.501 604.353 647.217 604.353ZM653.826 604.353C653.406 604.353 653.045 604.202 652.744 603.901C652.443 603.6 652.292 603.239 652.292 602.819C652.292 602.398 652.443 602.037 652.744 601.736C653.045 601.435 653.406 601.284 653.826 601.284C654.247 601.284 654.608 601.435 654.909 601.736C655.21 602.037 655.36 602.398 655.36 602.819C655.36 603.097 655.289 603.353 655.147 603.586C655.011 603.819 654.826 604.006 654.593 604.148C654.366 604.284 654.11 604.353 653.826 604.353ZM658.936 604.216V602.682L664.697 596.375C665.373 595.637 665.93 594.995 666.368 594.449C666.805 593.898 667.129 593.381 667.339 592.898C667.555 592.409 667.663 591.898 667.663 591.364C667.663 590.75 667.515 590.219 667.22 589.77C666.93 589.321 666.532 588.975 666.027 588.731C665.521 588.486 664.953 588.364 664.322 588.364C663.652 588.364 663.066 588.503 662.566 588.782C662.072 589.054 661.689 589.438 661.416 589.932C661.149 590.427 661.015 591.006 661.015 591.671H659.004C659.004 590.648 659.24 589.75 659.711 588.978C660.183 588.205 660.825 587.603 661.637 587.171C662.456 586.739 663.373 586.523 664.39 586.523C665.413 586.523 666.319 586.739 667.109 587.171C667.899 587.603 668.518 588.185 668.967 588.918C669.416 589.651 669.64 590.466 669.64 591.364C669.64 592.006 669.524 592.634 669.291 593.248C669.064 593.856 668.666 594.534 668.098 595.284C667.535 596.029 666.754 596.938 665.754 598.012L661.833 602.205V602.341H669.947V604.216H658.936ZM674.967 604.353C674.547 604.353 674.186 604.202 673.885 603.901C673.583 603.6 673.433 603.239 673.433 602.819C673.433 602.398 673.583 602.037 673.885 601.736C674.186 601.435 674.547 601.284 674.967 601.284C675.387 601.284 675.748 601.435 676.049 601.736C676.35 602.037 676.501 602.398 676.501 602.819C676.501 603.097 676.43 603.353 676.288 603.586C676.152 603.819 675.967 604.006 675.734 604.148C675.507 604.284 675.251 604.353 674.967 604.353ZM681.576 604.353C681.156 604.353 680.795 604.202 680.494 603.901C680.193 603.6 680.042 603.239 680.042 602.819C680.042 602.398 680.193 602.037 680.494 601.736C680.795 601.435 681.156 601.284 681.576 601.284C681.997 601.284 682.358 601.435 682.659 601.736C682.96 602.037 683.11 602.398 683.11 602.819C683.11 603.097 683.039 603.353 682.897 603.586C682.761 603.819 682.576 604.006 682.343 604.148C682.116 604.284 681.86 604.353 681.576 604.353ZM688.186 604.353C687.765 604.353 687.404 604.202 687.103 603.901C686.802 603.6 686.652 603.239 686.652 602.819C686.652 602.398 686.802 602.037 687.103 601.736C687.404 601.435 687.765 601.284 688.186 601.284C688.606 601.284 688.967 601.435 689.268 601.736C689.569 602.037 689.72 602.398 689.72 602.819C689.72 603.097 689.649 603.353 689.507 603.586C689.37 603.819 689.186 604.006 688.953 604.148C688.725 604.284 688.47 604.353 688.186 604.353ZM698.537 604.455C697.412 604.455 696.409 604.262 695.528 603.875C694.653 603.489 693.957 602.952 693.44 602.265C692.929 601.571 692.65 600.767 692.605 599.853H694.752C694.798 600.415 694.991 600.901 695.332 601.31C695.673 601.713 696.119 602.026 696.67 602.248C697.221 602.469 697.832 602.58 698.502 602.58C699.252 602.58 699.917 602.449 700.497 602.188C701.076 601.927 701.531 601.563 701.86 601.097C702.19 600.631 702.355 600.091 702.355 599.478C702.355 598.836 702.196 598.27 701.877 597.782C701.559 597.287 701.093 596.901 700.48 596.623C699.866 596.344 699.116 596.205 698.23 596.205H696.832V594.33H698.23C698.923 594.33 699.531 594.205 700.054 593.955C700.582 593.705 700.994 593.353 701.289 592.898C701.591 592.444 701.741 591.909 701.741 591.296C701.741 590.705 701.61 590.191 701.349 589.753C701.088 589.316 700.718 588.975 700.241 588.731C699.77 588.486 699.213 588.364 698.571 588.364C697.968 588.364 697.4 588.475 696.866 588.696C696.338 588.912 695.906 589.228 695.571 589.642C695.235 590.052 695.054 590.546 695.025 591.125H692.98C693.014 590.211 693.289 589.409 693.806 588.722C694.324 588.029 695 587.489 695.835 587.103C696.676 586.716 697.599 586.523 698.605 586.523C699.684 586.523 700.61 586.742 701.383 587.179C702.156 587.611 702.75 588.182 703.164 588.892C703.579 589.603 703.787 590.37 703.787 591.194C703.787 592.177 703.528 593.015 703.011 593.708C702.5 594.401 701.804 594.881 700.923 595.148V595.284C702.025 595.466 702.886 595.935 703.505 596.691C704.125 597.441 704.434 598.37 704.434 599.478C704.434 600.427 704.176 601.279 703.659 602.034C703.147 602.784 702.449 603.375 701.562 603.807C700.676 604.239 699.667 604.455 698.537 604.455Z" fill="white"/>
</svg>
